<?xml version="1.0" encoding="UTF-8" standalone="no"?>
<!DOCTYPE svg PUBLIC "-//W3C//DTD SVG 1.1//EN"
 "http://www.w3.org/Graphics/SVG/1.1/DTD/svg11.dtd">
<!-- Generated by graphviz version 2.28.0 (20110509.1545)
 -->
<!-- Title: G Pages: 1 -->
<svg width="460pt" height="313pt"
 viewBox="0.00 0.00 460.00 313.00" xmlns="http://www.w3.org/2000/svg" xmlns:xlink="http://www.w3.org/1999/xlink">
<g id="graph1" class="graph" transform="scale(1 1) rotate(0) translate(4 309)">
<title>G</title>
<polygon fill="white" stroke="white" points="-4,5 -4,-309 457,-309 457,5 -4,5"/>
<g id="graph2" class="cluster"><title>cluster_Global</title>
<polyline fill="none" stroke="gray" points="342,-8 432,-8 "/>
<path fill="none" stroke="gray" d="M432,-8C438,-8 444,-14 444,-20"/>
<polyline fill="none" stroke="gray" points="444,-20 444,-285 "/>
<path fill="none" stroke="gray" d="M444,-285C444,-291 438,-297 432,-297"/>
<polyline fill="none" stroke="gray" points="432,-297 342,-297 "/>
<path fill="none" stroke="gray" d="M342,-297C336,-297 330,-291 330,-285"/>
<polyline fill="none" stroke="gray" points="330,-285 330,-20 "/>
<path fill="none" stroke="gray" d="M330,-20C330,-14 336,-8 342,-8"/>
<text text-anchor="middle" x="387" y="-282" font-family="Times,serif" font-size="11.00" fill="gray">\</text>
</g>
<!-- \\CasaSettings -->
<g id="node2" class="node"><title>\\CasaSettings</title>
<polygon fill="none" stroke="black" points="423.332,-268 350.668,-268 350.668,-232 423.332,-232 423.332,-268"/>
<text text-anchor="middle" x="387" y="-245.6" font-family="Times,serif" font-size="11.00">CasaSettings</text>
</g>
<!-- \\CreateDatabase -->
<g id="node3" class="node"><title>\\CreateDatabase</title>
<polygon fill="none" stroke="black" points="429.513,-214 344.487,-214 344.487,-178 429.513,-178 429.513,-214"/>
<text text-anchor="middle" x="387" y="-191.6" font-family="Times,serif" font-size="11.00">CreateDatabase</text>
</g>
<!-- \\DBMigration -->
<g id="node8" class="node"><title>\\DBMigration</title>
<ellipse fill="none" stroke="black" cx="133" cy="-196" rx="65.5161" ry="18"/>
<text text-anchor="middle" x="133" y="-190.4" font-family="Times,serif" font-size="14.00" fill="gray">\DBMigration</text>
</g>
<!-- \\CreateDatabase&#45;&gt;\\DBMigration -->
<g id="edge3" class="edge"><title>\\CreateDatabase&#45;&gt;\\DBMigration</title>
<path fill="none" stroke="black" d="M344.387,-196C307.684,-196 253.301,-196 209.021,-196"/>
<polygon fill="none" stroke="black" points="208.871,-192.5 198.871,-196 208.871,-199.5 208.871,-192.5"/>
</g>
<!-- \\CasaAdminPlugin -->
<g id="node4" class="node"><title>\\CasaAdminPlugin</title>
<polygon fill="none" stroke="black" points="435.169,-160 338.831,-160 338.831,-124 435.169,-124 435.169,-160"/>
<text text-anchor="middle" x="387" y="-137.6" font-family="Times,serif" font-size="11.00">CasaAdminPlugin</text>
</g>
<!-- \\StudipPlugin -->
<g id="node10" class="node"><title>\\StudipPlugin</title>
<ellipse fill="none" stroke="black" cx="133" cy="-142" rx="64.3281" ry="18"/>
<text text-anchor="middle" x="133" y="-136.4" font-family="Times,serif" font-size="14.00" fill="gray">\StudipPlugin</text>
</g>
<!-- \\CasaAdminPlugin&#45;&gt;\\StudipPlugin -->
<g id="edge5" class="edge"><title>\\CasaAdminPlugin&#45;&gt;\\StudipPlugin</title>
<path fill="none" stroke="black" d="M338.601,-142C301.721,-142 249.882,-142 207.613,-142"/>
<polygon fill="none" stroke="black" points="207.367,-138.5 197.367,-142 207.367,-145.5 207.367,-138.5"/>
</g>
<!-- \\SystemPlugin -->
<g id="node12" class="node"><title>\\SystemPlugin</title>
<ellipse fill="none" stroke="black" cx="133" cy="-88" rx="67.2596" ry="18"/>
<text text-anchor="middle" x="133" y="-82.4" font-family="Times,serif" font-size="14.00" fill="gray">\SystemPlugin</text>
</g>
<!-- \\CasaAdminPlugin&#45;&gt;\\SystemPlugin -->
<g id="edge7" class="edge"><title>\\CasaAdminPlugin&#45;&gt;\\SystemPlugin</title>
<path fill="none" stroke="black" stroke-dasharray="1,5" d="M338.742,-131.143C316.664,-126.128 290.01,-120.156 266,-115 243.589,-110.187 218.995,-105.103 197.172,-100.66"/>
<polygon fill="none" stroke="black" points="197.854,-97.2273 187.357,-98.6671 196.461,-104.087 197.854,-97.2273"/>
</g>
<!-- \\Service -->
<g id="node5" class="node"><title>\\Service</title>
<polygon fill="none" stroke="black" points="414,-106 360,-106 360,-70 414,-70 414,-106"/>
<text text-anchor="middle" x="387" y="-83.6" font-family="Times,serif" font-size="11.00">Service</text>
</g>
<!-- \\CasaPlugin -->
<g id="node6" class="node"><title>\\CasaPlugin</title>
<polygon fill="none" stroke="black" points="420.112,-52 353.888,-52 353.888,-16 420.112,-16 420.112,-52"/>
<text text-anchor="middle" x="387" y="-29.6" font-family="Times,serif" font-size="11.00">CasaPlugin</text>
</g>
<!-- \\AbstractStudIPStandardPlugin -->
<g id="node14" class="node"><title>\\AbstractStudIPStandardPlugin</title>
<ellipse fill="none" stroke="black" cx="133" cy="-34" rx="132.063" ry="18"/>
<text text-anchor="middle" x="133" y="-28.4" font-family="Times,serif" font-size="14.00" fill="gray">\AbstractStudIPStandardPlugin</text>
</g>
<!-- \\CasaPlugin&#45;&gt;\\AbstractStudIPStandardPlugin -->
<g id="edge9" class="edge"><title>\\CasaPlugin&#45;&gt;\\AbstractStudIPStandardPlugin</title>
<path fill="none" stroke="black" d="M353.828,-34C333.204,-34 304.844,-34 275.344,-34"/>
<polygon fill="none" stroke="black" points="275.306,-30.5001 265.306,-34 275.306,-37.5001 275.306,-30.5001"/>
</g>
</g>
</svg>
